<svg width="76" height="76" viewBox="0 0 76 76" fill="none" xmlns="http://www.w3.org/2000/svg">
<g id="Group 33">
<rect id="Rectangle 63" width="15.2627" height="15.2627" rx="2" fill="#332C27"/>
<rect id="Rectangle 68" width="15.2627" height="15.2627" rx="2" transform="matrix(1 0 0 -1 0 76)" fill="#332C27"/>
<rect id="Rectangle 64" x="15.1843" y="15.1846" width="15.2627" height="15.2627" rx="2" fill="#332C27"/>
<rect id="Rectangle 69" width="15.2627" height="15.2627" rx="2" transform="matrix(1 0 0 -1 15.1843 60.8154)" fill="#332C27"/>
<rect id="Rectangle 65" x="30.3687" y="30.3687" width="15.2627" height="15.2627" rx="2" fill="#332C27"/>
<rect id="Rectangle 66" x="45.553" y="15.1846" width="15.2627" height="15.2627" rx="2" fill="#332C27"/>
<rect id="Rectangle 70" width="15.2627" height="15.2627" rx="2" transform="matrix(1 0 0 -1 45.553 60.8154)" fill="#332C27"/>
<rect id="Rectangle 67" x="60.7375" width="15.2627" height="15.2627" rx="2" fill="#332C27"/>
<rect id="Rectangle 71" width="15.2627" height="15.2627" rx="2" transform="matrix(1 0 0 -1 60.7375 76)" fill="#332C27"/>
</g>
</svg>
