<svg width="68" height="22" viewBox="0 0 68 22" fill="none" xmlns="http://www.w3.org/2000/svg">
<path d="M39.6761 3.70709C43.4845 5.88797 46.9011 7.20727 51.0198 6.74369C56.0891 6.17321 58.143 3.22138 63.0414 5.13873C65.5017 6.10179 67.3313 8.72787 67.4879 11.506C67.6408 14.2156 66.3591 16.6261 64.4459 18.1384C62.0892 20.0014 58.8701 21.4786 53.4918 21.3967C47.1931 21.3011 44.3991 19.7362 34.533 19.6368C27.49 19.5658 22.8622 21.2681 14.279 21.3967C9.86341 21.4632 4.714 19.6782 2.28964 16.7589C0.459575 14.5551 0.193126 11.8467 0.949458 9.53598C1.68407 7.29037 3.97646 5.2114 6.57121 4.7946C11.5193 3.99985 12.3621 6.93413 16.7865 6.6042C20.9436 6.29432 22.754 3.07354 25.9381 1.58635C28.3065 0.479625 31.0361 0.247839 33.5118 0.821248C35.6033 1.3057 37.565 2.49763 39.6765 3.70709" fill="#7100EE"/>
<path d="M23.8447 12.1927C23.5708 10.5727 22.3208 9.99512 21.2425 9.99512C20.4594 9.99512 19.7302 10.2824 19.1898 10.8045C18.5717 11.4013 18.2451 12.265 18.2451 13.3015C18.2451 15.4828 19.8129 16.4588 21.3665 16.4588C22.3325 16.4588 23.2387 16.0917 23.7307 15.5003L23.7474 15.4807L23.1765 14.9219L23.1573 14.9436C22.7393 15.4118 21.9942 15.621 21.4408 15.621C19.8948 15.621 19.2896 14.4283 19.2387 13.3942H23.8852L23.8873 13.3692C23.9232 12.9699 23.9095 12.574 23.8451 12.1927H23.8447ZM19.2729 12.5995C19.475 11.1737 20.5609 10.792 21.1744 10.792C21.6342 10.792 22.074 10.9807 22.4135 11.3236C22.7543 11.6677 22.9497 12.1313 22.9523 12.5995H19.2729Z" fill="white"/>
<path d="M49.4832 12.1927C49.2093 10.5723 47.9593 9.99512 46.881 9.99512C46.0979 9.99512 45.3687 10.2824 44.8287 10.8045C44.2106 11.4013 43.884 12.2649 43.884 13.3015C43.884 15.4828 45.4514 16.4588 47.005 16.4588C47.971 16.4588 48.8772 16.0917 49.3692 15.5003L49.3859 15.4807L48.815 14.9219L48.7958 14.9436C48.3778 15.4118 47.6327 15.621 47.0798 15.621C45.5337 15.621 44.9285 14.4283 44.8772 13.3942H49.5242L49.5262 13.3692C49.5622 12.9687 49.548 12.5727 49.4841 12.1927M44.9122 12.5991C45.1144 11.1733 46.2002 10.7915 46.8137 10.7915C47.2731 10.7915 47.7133 10.9803 48.0524 11.3232C48.3932 11.6673 48.5887 12.1309 48.5912 12.5991H44.9122Z" fill="white"/>
<path d="M28.0603 7.18115H25.8689V8.01266H27.0333V15.3935H25.7883V16.2233H29.2948V15.3935H28.0603V7.18115Z" fill="white"/>
<path d="M33.0186 8.03356C33.4158 8.03356 33.7395 7.71324 33.7395 7.31899C33.7395 6.92475 33.4162 6.604 33.0186 6.604C32.6211 6.604 32.2961 6.92558 32.2961 7.32066C32.2961 7.71574 32.6202 8.03356 33.0186 8.03356Z" fill="white"/>
<path d="M33.5074 9.2627H31.3495V10.1042H32.4817V15.3935H31.2693V16.2234H34.5945V15.3935H33.5074V9.2627Z" fill="white"/>
<path d="M39.4834 10.8638C40.3884 10.8638 41.0704 11.5057 41.199 11.6351C41.2592 11.6953 41.3652 11.8414 41.3665 11.8431L41.3874 11.8715L42.0021 11.1528L41.99 11.1352C41.5047 10.4248 40.568 9.9834 39.5448 9.9834C37.6805 9.9834 36.2751 11.3724 36.2751 13.2146C36.2751 15.0568 37.6842 16.4696 39.4838 16.4696C40.4064 16.4696 41.3298 16.0917 41.8944 15.4836L41.9111 15.4657L41.3151 14.772L41.2943 14.7958C40.9059 15.2351 40.2109 15.5304 39.5648 15.5304C38.3115 15.5304 37.3301 14.4692 37.3301 13.1148C37.3301 11.6527 38.4397 10.8634 39.4838 10.8634" fill="white"/>
<path d="M62.2321 8.1377L58.1477 16.9226L58.8953 17.2676L62.9918 8.49352L62.2321 8.1377Z" fill="white"/>
<path d="M5.76751 16.8242L9.86365 8.05016L9.10356 7.69434L5.01953 16.4797L5.76751 16.8242Z" fill="white"/>
<path d="M15.1202 11.8232L13.0533 12.4948V10.3223H12.2987V12.4948L10.2318 11.8232L9.99878 12.5411L12.0656 13.2127L10.7881 14.9709L11.3987 15.4145L12.6758 13.6562L13.9538 15.4145L14.5639 14.9709L13.2864 13.2127L15.3532 12.5411L15.1202 11.8232Z" fill="white"/>
<path d="M57.7903 12.5411L57.5572 11.8232L55.4899 12.4948V10.3223H54.7357V12.4948L52.6688 11.8232L52.4358 12.5411L54.5027 13.2127L53.2255 14.9709L53.8357 15.4145L55.1137 13.6562L56.3904 15.4145L57.0013 14.9709L55.7234 13.2127L57.7903 12.5411Z" fill="white"/>
</svg>
