<svg width="90" height="18" viewBox="0 0 90 18" fill="none" xmlns="http://www.w3.org/2000/svg">
<path d="M20.7407 15.1162V2.80664H28.6268V4.67546H22.971V8.0188H28.0887V9.88763H22.971V15.1162H20.7407Z" fill="#202632"/>
<path d="M32.2247 2.80664V15.1162H30.0479V2.80664H32.2247Z" fill="#202632"/>
<path d="M37.7857 15.2969C36.8615 15.2969 36.0606 15.1039 35.3911 14.7178C34.7217 14.3317 34.2041 13.7813 33.8427 13.0708C33.4813 12.3602 33.3005 11.5223 33.3005 10.5529C33.3005 9.58367 33.4813 8.77045 33.8468 8.04753C34.2083 7.32876 34.7175 6.76605 35.3706 6.36354C36.0237 5.96102 36.7917 5.75977 37.6748 5.75977C38.2457 5.75977 38.7838 5.85012 39.289 6.03495C39.7942 6.21979 40.246 6.49908 40.6362 6.88106C41.0263 7.26304 41.3344 7.7477 41.5603 8.33095C41.7862 8.91421 41.8971 9.61648 41.8971 10.4256V11.0952H34.3274V9.62885H39.8106C39.8106 9.20987 39.7161 8.84021 39.5395 8.51167C39.3629 8.18719 39.1165 7.92842 38.8043 7.73948C38.4881 7.55055 38.1225 7.45608 37.7077 7.45608C37.2641 7.45608 36.8698 7.56287 36.5371 7.77645C36.2003 7.99003 35.9374 8.26933 35.7526 8.61847C35.5678 8.96346 35.4692 9.3454 35.4692 9.75617V11.0376C35.4692 11.5757 35.5678 12.0357 35.7649 12.4177C35.962 12.7997 36.2373 13.0913 36.5905 13.2967C36.9437 13.4979 37.3544 13.6006 37.8267 13.6006C38.143 13.6006 38.4305 13.5554 38.6852 13.4651C38.9399 13.3747 39.1658 13.2433 39.3505 13.0666C39.5354 12.89 39.6832 12.6724 39.7777 12.4094L41.8109 12.6395C41.6835 13.1776 41.4412 13.6458 41.0797 14.0442C40.7224 14.4426 40.2624 14.7506 39.7079 14.9684C39.1493 15.186 38.5127 15.2969 37.798 15.2969H37.7857Z" fill="#202632"/>
<path d="M44.3082 5.88281L46.1729 9.29188L48.0664 5.88281H50.3706L47.5859 10.4994L50.4158 15.116H48.1239L46.1689 11.7932L44.2343 15.116H41.926L44.7395 10.4994L41.9999 5.88281H44.3082Z" fill="#202632"/>
<path d="M56.1536 5.88306V7.56706H50.8469V5.88306H56.1536ZM52.1531 3.67334H54.3299V12.3438C54.3299 12.6354 54.3751 12.8614 54.4655 13.0133C54.5558 13.1653 54.6749 13.2721 54.8228 13.3296C54.9707 13.3871 55.1349 13.4158 55.3157 13.4158C55.4512 13.4158 55.5785 13.4076 55.6894 13.3871C55.8044 13.3666 55.8907 13.3501 55.9523 13.3337L56.3178 15.0341C56.2028 15.0752 56.0345 15.1163 55.8209 15.1655C55.6073 15.2149 55.3444 15.2436 55.0364 15.2477C54.4901 15.2641 54.0013 15.182 53.5618 14.9972C53.1265 14.8165 52.7815 14.533 52.5268 14.1469C52.2721 13.7608 52.1489 13.2803 52.1531 12.7053V3.67334Z" fill="#202632"/>
<path d="M63.3498 11.2346V5.88281H65.5267V15.116H63.4155V13.4731H63.3211C63.1116 13.9906 62.7707 14.4136 62.2943 14.7423C61.8178 15.0708 61.2346 15.2351 60.5404 15.2351C59.9367 15.2351 59.4027 15.0995 58.9386 14.8285C58.4745 14.5574 58.1131 14.1632 57.8543 13.6456C57.5914 13.1281 57.4641 12.4997 57.4641 11.7604V5.88281H59.6409V11.4235C59.6409 12.0109 59.8011 12.475 60.1215 12.82C60.4419 13.1651 60.8649 13.3376 61.3865 13.3376C61.707 13.3376 62.0191 13.2595 62.3189 13.1034C62.6188 12.9474 62.8652 12.7133 63.0623 12.4011C63.2595 12.0889 63.3539 11.6987 63.3539 11.2305L63.3498 11.2346Z" fill="#202632"/>
<path d="M70.4227 15.2805C69.6958 15.2805 69.0468 15.0957 68.4759 14.7219C67.9008 14.3481 67.449 13.806 67.1164 13.0995C66.7837 12.3889 66.6194 11.5305 66.6194 10.5161C66.6194 9.50153 66.7878 8.62254 67.1287 7.91611C67.4655 7.20966 67.9255 6.67571 68.5005 6.31017C69.0756 5.94461 69.7204 5.768 70.4309 5.768C70.9731 5.768 71.4167 5.85836 71.7658 6.04319C72.1149 6.22802 72.3902 6.4457 72.5955 6.70036C72.8009 6.95501 72.957 7.19323 73.0719 7.41914H73.1623V2.80664H75.3433V15.1162H73.2034V13.6622H73.0719C72.9611 13.8881 72.7968 14.1223 72.5832 14.3728C72.3696 14.6233 72.0903 14.8369 71.7412 15.0135C71.3921 15.1901 70.9526 15.2764 70.4227 15.2764V15.2805ZM71.0306 13.4938C71.4907 13.4938 71.885 13.3665 72.2095 13.1159C72.5339 12.8654 72.7803 12.5163 72.9488 12.0686C73.1171 11.6209 73.1992 11.0952 73.1992 10.4996C73.1992 9.90407 73.1171 9.38244 72.9488 8.94294C72.7844 8.50344 72.538 8.15844 72.2135 7.91611C71.8891 7.67378 71.4947 7.55056 71.0265 7.55056C70.5583 7.55056 70.1352 7.67789 69.8107 7.92844C69.4863 8.17897 69.2399 8.52811 69.0756 8.97583C68.9112 9.4194 68.8291 9.92866 68.8291 10.5037C68.8291 11.0787 68.9112 11.5963 69.0796 12.0439C69.2439 12.4957 69.4904 12.849 69.819 13.1077C70.1476 13.3665 70.546 13.4938 71.0224 13.4938H71.0306Z" fill="#202632"/>
<path d="M78.2553 4.57263C77.9103 4.57263 77.6146 4.45762 77.364 4.22762C77.1135 3.99761 76.9902 3.71831 76.9902 3.39384C76.9902 3.06936 77.1135 2.78596 77.364 2.55595C77.6104 2.32594 77.9103 2.21094 78.2553 2.21094C78.6003 2.21094 78.9 2.32594 79.1466 2.55595C79.3933 2.78596 79.5162 3.06525 79.5162 3.39384C79.5162 3.72242 79.3933 3.99761 79.1466 4.22762C78.9 4.45762 78.6003 4.57263 78.2553 4.57263ZM77.1627 15.116V5.88285H79.34V15.116H77.1627Z" fill="#202632"/>
<path d="M85.0933 15.2967C84.1898 15.2967 83.4099 15.0995 82.7483 14.7011C82.0874 14.3028 81.5738 13.7482 81.212 13.0377C80.851 12.323 80.6663 11.4893 80.6663 10.5364C80.6663 9.58346 80.8463 8.74557 81.212 8.0309C81.5738 7.31212 82.0874 6.75764 82.7483 6.35923C83.4099 5.96082 84.1898 5.76367 85.0933 5.76367C85.9969 5.76367 86.7776 5.96082 87.4392 6.35923C88.1001 6.75764 88.6137 7.31212 88.9747 8.0309C89.3364 8.74964 89.5173 9.58346 89.5173 10.5364C89.5173 11.4893 89.3364 12.323 88.9747 13.0377C88.6137 13.7524 88.1001 14.3068 87.4392 14.7011C86.7776 15.0995 85.9969 15.2967 85.0933 15.2967ZM85.1059 13.5552C85.5945 13.5552 86.0055 13.4197 86.3344 13.1486C86.6625 12.8775 86.9091 12.516 87.0689 12.056C87.2294 11.6002 87.3116 11.0908 87.3116 10.5281C87.3116 9.96541 87.2294 9.45199 87.0689 8.99198C86.9091 8.53197 86.6625 8.16644 86.3344 7.89536C86.0055 7.62428 85.5945 7.48874 85.1059 7.48874C84.6173 7.48874 84.1898 7.62428 83.857 7.89536C83.525 8.16644 83.2823 8.53197 83.1178 8.99198C82.9581 9.45199 82.8759 9.96133 82.8759 10.5281C82.8759 11.095 82.9581 11.6002 83.1178 12.056C83.2823 12.512 83.5289 12.8775 83.857 13.1486C84.1858 13.4197 84.6047 13.5552 85.1059 13.5552Z" fill="#202632"/>
<path d="M10.2751 7.70646V5.27495C10.2751 3.93186 11.3677 2.84343 12.7067 2.84343C13.0558 2.84343 13.3844 2.92557 13.6925 3.06522L15.5202 1.23747C14.6987 0.662453 13.7294 0.346191 12.7067 0.346191C9.98769 0.346191 7.77382 2.56002 7.77382 5.27905V7.71057H6.20895V10.2119H7.77382V12.6434C7.77382 13.9865 6.68128 15.075 5.34231 15.075C4.99729 15.075 4.6646 14.9928 4.35655 14.8531L4.23744 14.9722L2.52881 16.6809C3.35027 17.2559 4.31958 17.5722 5.34231 17.5722C8.06134 17.5722 10.2751 15.3583 10.2751 12.6393V10.2078H11.84V7.70646H10.2751Z" fill="#6047F6"/>
<path d="M2.91081 12.6391C2.91081 11.9696 3.18189 11.3618 3.62548 10.9181C4.06496 10.4787 4.67284 10.2035 5.34644 10.2035V7.70215C2.62741 7.70215 0.413574 9.91597 0.413574 12.635C0.413574 13.6249 0.701085 14.5654 1.23914 15.3704C1.41986 15.6374 1.62522 15.8921 1.85934 16.1221L3.62548 14.356C3.16546 13.896 2.91492 13.284 2.91492 12.635L2.91081 12.6391Z" fill="#C0C0FF"/>
<path d="M17.6397 5.2747C17.6397 3.95625 17.1263 2.71995 16.194 1.7876L15.3108 2.67066L14.4277 3.55373C14.8878 4.01375 15.1383 4.62574 15.1383 5.2747C15.1383 6.61367 14.0458 7.70621 12.7068 7.70621V10.2075C13.3886 10.2075 14.0335 10.0679 14.6249 9.81736C16.3952 9.06575 17.6397 7.31191 17.6397 5.2747Z" fill="#C0C0FF"/>
</svg>
