<svg width="78" height="14" viewBox="0 0 78 14" fill="none" xmlns="http://www.w3.org/2000/svg">
<path d="M14.164 4.25305C13.8032 3.4233 13.3162 2.68375 12.7029 2.05242C12.0716 1.42109 11.3501 0.916028 10.5203 0.55527C9.69058 0.194511 8.78869 -0.00390625 7.81464 -0.00390625C6.87667 -0.00390625 5.97477 0.158435 5.12699 0.519194C4.27921 0.879952 3.53965 1.36698 2.89029 1.98027C2.24092 2.61159 1.73586 3.33311 1.3751 4.16286C1.00518 5.01054 0.814793 5.92563 0.815923 6.85051C0.815923 7.78848 0.978264 8.69038 1.33902 9.53816C1.69978 10.3859 2.18681 11.1255 2.81813 11.7749C3.44946 12.4242 4.18902 12.9293 5.01876 13.29C5.86654 13.6508 6.7504 13.8492 7.70641 13.8492L14.6149 13.9033L14.6691 6.95873C14.6871 6.00272 14.5067 5.10083 14.164 4.25305ZM13.2441 12.5144L7.70641 12.4603C6.94882 12.4603 6.2273 12.298 5.5599 12.0094C4.89249 11.7207 4.29724 11.3059 3.79218 10.8008C3.2904 10.2826 2.887 9.67754 2.60168 9.01506C2.31307 8.32962 2.18681 7.62614 2.18681 6.86855C2.18681 6.09291 2.34915 5.3714 2.63775 4.70399C2.92636 4.03659 3.34123 3.45938 3.8463 2.95431C4.3694 2.44925 4.96465 2.07046 5.63205 1.78185C6.31749 1.49324 7.02097 1.36698 7.77856 1.36698C8.55419 1.36698 9.27571 1.52932 9.94312 1.81792C10.6105 2.10653 11.1877 2.50337 11.6928 3.02647C12.1979 3.53153 12.5767 4.12678 12.8653 4.79418C13.1539 5.46159 13.2801 6.1831 13.2801 6.95873L13.2441 12.5144Z" fill="#1DC078"/>
<path d="M13.7673 13.6509C13.6049 13.6509 13.4426 13.5967 13.3163 13.4705L4.87459 4.88443C4.62206 4.63189 4.6401 4.23506 4.87459 4.00057C5.12712 3.74804 5.52396 3.76607 5.75845 4.00057L14.2002 12.5866C14.4527 12.8392 14.4347 13.236 14.2002 13.4705C14.092 13.5967 13.9296 13.6509 13.7673 13.6509Z" fill="#1DC078"/>
<path d="M7.67034 7.08543C7.59819 7.08543 7.52604 7.06739 7.45389 7.04935C7.1292 6.92309 6.94882 6.56233 7.07509 6.23764L8.21148 3.11708C8.33774 2.7924 8.6985 2.61202 9.02319 2.73829C9.34787 2.86455 9.52825 3.22531 9.40198 3.54999L8.26559 6.67055C8.1754 6.92309 7.92287 7.08543 7.67034 7.08543ZM9.87097 10.0076H5.9387C5.59598 10.0076 5.30737 9.737 5.30737 9.37624C5.30737 9.03352 5.59598 8.74492 5.9387 8.74492H9.87097C10.2137 8.74492 10.5023 9.03352 10.5023 9.37624C10.5023 9.737 10.2317 10.0076 9.87097 10.0076ZM17.8257 4.16328V13.8857H15.9137V4.16328H17.8257ZM18.8358 7.13954C19.0884 6.56233 19.4311 6.03923 19.882 5.60632C20.3149 5.17341 20.838 4.81265 21.4333 4.56012C22.0285 4.30759 22.6599 4.18132 23.3092 4.18132C23.9947 4.18132 24.626 4.30759 25.2032 4.56012C25.7804 4.81265 26.3035 5.15537 26.7545 5.60632C27.2054 6.03923 27.5481 6.56233 27.8007 7.13954C28.0532 7.71675 28.1795 8.34808 28.1795 9.03352V13.9038H26.2494V9.03352C26.2494 8.63669 26.1773 8.25789 26.0149 7.89713C25.8706 7.53638 25.6542 7.22973 25.3836 6.95916C25.113 6.68859 24.8064 6.49017 24.4456 6.32783C24.0849 6.18353 23.7061 6.09334 23.2912 6.09334C22.8944 6.09334 22.5156 6.16549 22.1548 6.32783C21.794 6.47214 21.4874 6.68859 21.2168 6.95916C20.9463 7.22973 20.7478 7.53638 20.5855 7.89713C20.4412 8.25789 20.351 8.63669 20.351 9.03352V13.9038H18.4209V9.03352C18.457 8.36612 18.5833 7.73479 18.8358 7.13954ZM32.5627 2.4136C32.2019 2.55791 31.8953 2.77436 31.6247 3.04493C31.3541 3.3155 31.1557 3.62214 30.9934 3.9829C30.8491 4.34366 30.7589 4.72246 30.7589 5.11929V6.11138H34.6551V8.04144H30.7589V13.8857H28.8288V5.11929C28.8288 4.43385 28.9551 3.80252 29.2076 3.22531C29.4602 2.6481 29.8029 2.125 30.2538 1.69209C30.7048 1.25918 31.2279 0.898417 31.8051 0.645886C32.4003 0.393355 33.0317 0.26709 33.681 0.26709H34.637V2.19715H33.681C33.3022 2.19715 32.9234 2.2693 32.5627 2.4136ZM40.3551 0.26709V13.8857H38.425V0.26709H40.3551ZM48.6886 10.4585L50.0595 11.8294L49.3921 12.4968C48.9231 12.9658 48.4 13.3085 47.8047 13.561C47.2095 13.8136 46.5962 13.9218 45.9468 13.9218C45.2975 13.9218 44.6842 13.7955 44.0889 13.561C43.4937 13.3085 42.9706 12.9658 42.5016 12.4968C42.0326 12.0278 41.6718 11.4867 41.4373 10.8914C41.2029 10.2962 41.0946 9.68289 41.0946 9.0696C41.0946 8.45631 41.2029 7.84302 41.4373 7.24777C41.6718 6.65252 42.0146 6.12942 42.5016 5.64239C42.9706 5.17341 43.5117 4.81265 44.107 4.57816C44.7022 4.34366 45.3155 4.2174 45.9288 4.2174C46.5421 4.2174 47.1554 4.34366 47.7506 4.57816C48.3459 4.81265 48.887 5.17341 49.356 5.64239L50.0234 6.3098L44.6301 11.7031C45.1712 11.9737 45.7665 12.0639 46.3797 11.9737C46.993 11.8835 47.5342 11.5949 47.9851 11.144L48.6886 10.4585ZM43.8544 6.9772C43.2772 7.55441 42.9886 8.23985 42.9886 9.05156C42.9886 9.50251 43.0968 9.91738 43.2953 10.3323L45.2073 8.42023L46.3617 7.28384L47.2095 6.43606C46.6683 6.16549 46.0731 6.0753 45.4598 6.14745C44.8646 6.23764 44.3234 6.52625 43.8544 6.9772ZM55.543 4.16328C56.2285 4.16328 56.8598 4.28955 57.437 4.54208C58.0142 4.79461 58.5373 5.13733 58.9702 5.58828C59.4111 6.03001 59.7658 6.54994 60.0164 7.1215C60.2689 7.69872 60.3952 8.33004 60.3952 9.01548V13.8857H55.543C54.8756 13.8857 54.2443 13.7595 53.6671 13.5069C53.0718 13.2544 52.5487 12.9117 52.1158 12.4607C51.6649 12.0098 51.3221 11.4867 51.0696 10.9095C50.8171 10.3142 50.6908 9.68289 50.6908 9.03352C50.6908 8.34808 50.8171 7.71675 51.0696 7.13954C51.3221 6.56233 51.6649 6.03923 52.1158 5.60632C52.5667 5.17341 53.0899 4.81265 53.6671 4.56012C54.2623 4.28955 54.8936 4.16328 55.543 4.16328ZM58.4652 11.9557V9.01548C58.4652 8.61865 58.393 8.23985 58.2307 7.8791C58.0864 7.51834 57.8699 7.21169 57.5993 6.94112C57.3288 6.67055 57.0221 6.47214 56.6614 6.3098C56.3006 6.16549 55.9218 6.0753 55.525 6.0753C55.1281 6.0753 54.7313 6.14745 54.3705 6.3098C54.0098 6.4541 53.7031 6.67055 53.4326 6.94112C53.162 7.21169 52.9636 7.51834 52.8012 7.8791C52.6569 8.23985 52.5667 8.61865 52.5667 9.01548C52.5667 9.41232 52.6389 9.80915 52.8012 10.1699C52.9455 10.5307 53.162 10.8373 53.4326 11.1079C53.7031 11.3785 54.0098 11.5769 54.3705 11.7392C54.7313 11.8835 55.1101 11.9737 55.525 11.9737H58.4652V11.9557ZM66.7987 4.16328V6.09334H65.8246C65.4278 6.09334 65.049 6.16549 64.6882 6.32783C64.3275 6.47214 64.0208 6.68859 63.7503 6.95916C63.4797 7.22973 63.2813 7.53638 63.1189 7.89713C62.9746 8.25789 62.8844 8.63669 62.8844 9.03352V13.9038H60.9363V9.01548C60.9363 8.33004 61.0626 7.69872 61.3151 7.1215C61.5677 6.54429 61.9104 6.02119 62.3613 5.58828C62.8123 5.15537 63.3354 4.79461 63.9126 4.54208C64.5079 4.28955 65.1392 4.16328 65.7886 4.16328H66.7987ZM67.7547 7.13954C68.0072 6.56233 68.3499 6.03923 68.8009 5.60632C69.2338 5.17341 69.7569 4.81265 70.3521 4.56012C70.9474 4.30759 71.5787 4.18132 72.2281 4.18132C72.9135 4.18132 73.5449 4.30759 74.1221 4.56012C74.6993 4.81265 75.2224 5.15537 75.6733 5.60632C76.1243 6.03923 76.467 6.56233 76.7195 7.13954C76.9721 7.71675 77.0983 8.34808 77.0983 9.03352V13.9038H75.1683V9.03352C75.1683 8.63669 75.0961 8.25789 74.9338 7.89713C74.7895 7.53638 74.573 7.22973 74.3025 6.95916C74.0319 6.68859 73.7252 6.49017 73.3645 6.32783C73.0037 6.18353 72.6249 6.09334 72.2101 6.09334C71.8132 6.09334 71.4344 6.16549 71.0737 6.32783C70.7129 6.47214 70.4063 6.68859 70.1357 6.95916C69.8651 7.22973 69.6667 7.53638 69.5044 7.89713C69.3601 8.25789 69.2699 8.63669 69.2699 9.03352V13.9038H67.3398V9.03352C67.3759 8.36612 67.5022 7.73479 67.7547 7.13954Z" fill="#1DC078"/>
</svg>
