<svg width="102" height="12" viewBox="0 0 102 12" fill="none" xmlns="http://www.w3.org/2000/svg">
<path d="M15.4098 11.1419V8.3653H8.19071V0.405762H0.832764L7.08007 4.30917V11.1419H15.4098Z" fill="#FF7710"/>
<path d="M21.6572 0.405762L15.4099 4.30917V0.405762H21.6572Z" fill="#1C1B1A"/>
<path d="M65.7216 9.1982H71.689V11.3269H63.3592V0.5908H65.7216V9.1982ZM52.7434 11.3269H61.0732V9.22597H55.0734V7.00933H60.379V4.90839H55.0734V2.69175H61.0732V0.5908H52.7434V11.3269ZM73.9218 11.3269H76.2842V0.5908H73.9218V11.3269ZM28.6473 0.5908H26.2849V11.3269H34.6147V9.1982H28.6473V0.5908ZM36.8475 11.3269H39.2099V0.5908H36.8475V11.3269ZM98.8902 0.5908V7.30087L93.8762 0.706491L93.7883 0.5908H91.5138V11.3269H93.8762V4.50809L98.8902 11.0932L99.0684 11.3246H101.253V0.5908H98.8902ZM89.2208 3.7723C88.9425 3.11605 88.5358 2.52209 88.0245 2.02537C87.5011 1.51985 86.8863 1.11859 86.2128 0.843007C84.7333 0.260013 83.0878 0.260013 81.6083 0.843007C80.9368 1.11458 80.3254 1.51597 79.8093 2.02419C79.2931 2.5324 78.8823 3.13746 78.6004 3.80469C78.3079 4.48509 78.1583 5.21828 78.1607 5.95886V5.98894C78.1531 6.72846 78.2948 7.46192 78.5772 8.14542C78.8546 8.80215 79.2614 9.39628 79.7735 9.89235C80.2971 10.397 80.9119 10.7975 81.5852 11.0724C82.3141 11.3706 83.0953 11.52 83.8828 11.512C84.6754 11.521 85.4619 11.3724 86.1966 11.0747C86.8682 10.8038 87.4796 10.403 87.9958 9.89511C88.512 9.38725 88.9228 8.78241 89.2046 8.11534C89.4957 7.43394 89.643 6.6998 89.6373 5.95886V5.92878C89.6449 5.18926 89.5032 4.4558 89.2208 3.7723ZM87.2054 5.98894C87.2113 6.4384 87.1328 6.88497 86.9741 7.3055C86.8182 7.70412 86.5899 8.07047 86.3007 8.38605C86.009 8.70032 85.6542 8.94948 85.2595 9.11722C84.8398 9.29589 84.3876 9.3857 83.9314 9.381C83.4711 9.38774 83.0148 9.29459 82.594 9.10797C82.1984 8.93243 81.8414 8.68063 81.5432 8.36698C81.245 8.05333 81.0116 7.68398 80.8563 7.28005C80.6969 6.85809 80.6184 6.40988 80.6249 5.95886V5.92878C80.6182 5.47925 80.6967 5.03252 80.8563 4.61222C81.0122 4.2136 81.2405 3.84725 81.5297 3.53166C81.8193 3.21912 82.1707 2.97014 82.5616 2.8005C82.9842 2.6205 83.4397 2.53066 83.899 2.53672C84.3569 2.53192 84.8105 2.62501 85.2294 2.80975C85.6265 2.98363 85.9851 3.2345 86.2846 3.54786C86.584 3.86122 86.8184 4.23084 86.9741 4.63535C87.1322 5.05847 87.2106 5.50719 87.2054 5.95886V5.98894ZM51.0428 0.5908H48.2014L43.8445 5.19761V0.5908H41.4821V11.3269H43.8445V8.0413L45.087 6.75481L48.4166 11.3269H51.2533L46.6812 5.14671L51.0428 0.5908Z" fill="black"/>
</svg>
